<svg xmlns="http://www.w3.org/2000/svg" viewBox="0 0 2000 260" preserveAspectRatio="none">
  <defs>
    <linearGradient id="g" x1="0" x2="1">
      <stop offset="0%" stop-color="#ffb000"/>
      <stop offset="18%" stop-color="#ff4d8d"/>
      <stop offset="45%" stop-color="#7a4dff"/>
      <stop offset="70%" stop-color="#00b7c7"/>
      <stop offset="100%" stop-color="#90e8b0"/>
    </linearGradient>
  </defs>

  <g fill="none" stroke="url(#g)" stroke-linecap="round">
    <!-- light background strands -->
    <g opacity="0.18" stroke-width="1.1">
      <path d="M-140 210 C 180 40 520 285 820 210 C 1120 60 1440 275 1760 210 C 2020 150 2100 230 2340 210"/>
      <path d="M-140 190 C 180 55 520 270 820 190 C 1120 75 1440 255 1760 190 C 2020 145 2100 220 2340 190"/>
      <path d="M-140 80  C 180 235 520 -15 820 80  C 1120 220 1440 5  1760 80  C 2020 130 2100 45  2340 80"/>
      <path d="M-140 62  C 180 215 520 5   820 62  C 1120 205 1440 25 1760 62  C 2020 125 2100 50 2340 62"/>
    </g>

    <!-- main dense bundle -->
    <g opacity="0.55" stroke-width="1.35">
      <path d="M-140 182 C 180 70  520 260 820 182 C 1120 80  1440 250 1760 182 C 2020 140 2100 210 2340 182"/>
      <path d="M-140 176 C 180 76  520 254 820 176 C 1120 86  1440 244 1760 176 C 2020 140 2100 204 2340 176"/>
      <path d="M-140 170 C 180 82  520 248 820 170 C 1120 92  1440 238 1760 170 C 2020 140 2100 198 2340 170"/>
      <path d="M-140 164 C 180 88  520 242 820 164 C 1120 98  1440 232 1760 164 C 2020 140 2100 192 2340 164"/>
      <path d="M-140 158 C 180 94  520 236 820 158 C 1120 104 1440 226 1760 158 C 2020 140 2100 186 2340 158"/>
      <path d="M-140 152 C 180 100 520 230 820 152 C 1120 110 1440 220 1760 152 C 2020 140 2100 180 2340 152"/>
      <path d="M-140 146 C 180 106 520 224 820 146 C 1120 116 1440 214 1760 146 C 2020 140 2100 174 2340 146"/>
      <path d="M-140 140 C 180 112 520 218 820 140 C 1120 122 1440 208 1760 140 C 2020 140 2100 168 2340 140"/>
      <path d="M-140 134 C 180 118 520 212 820 134 C 1120 128 1440 202 1760 134 C 2020 140 2100 162 2340 134"/>
      <path d="M-140 128 C 180 124 520 206 820 128 C 1120 134 1440 196 1760 128 C 2020 140 2100 156 2340 128"/>
    </g>

    <!-- emphasized strands -->
    <g opacity="0.85" stroke-width="1.9">
      <path d="M-140 154 C 180 78  520 242 820 154 C 1120 90  1440 230 1760 154 C 2020 140 2100 186 2340 154"/>
      <path d="M-140 144 C 180 90  520 230 820 144 C 1120 102 1440 218 1760 144 C 2020 140 2100 174 2340 144"/>
      <path d="M-140 134 C 180 102 520 218 820 134 C 1120 114 1440 206 1760 134 C 2020 140 2100 162 2340 134"/>
    </g>
  </g>
</svg>
